<?xml version="1.0" standalone="no"?>
<!DOCTYPE svg PUBLIC "-//W3C//DTD SVG 20010904//EN"
 "http://www.w3.org/TR/2001/REC-SVG-20010904/DTD/svg10.dtd">
<svg version="1.0" xmlns="http://www.w3.org/2000/svg"
 width="512.000000pt" height="512.000000pt" viewBox="0 0 512.000000 512.000000"
 preserveAspectRatio="xMidYMid meet">

<g transform="translate(0.000000,512.000000) scale(0.100000,-0.100000)"
fill="#000000" stroke="none">
<path d="M2595 4030 c-1304 -500 -2389 -918 -2412 -929 -63 -30 -119 -86 -150
-149 -56 -115 -31 -272 58 -361 18 -18 223 -171 454 -339 231 -168 468 -340
526 -383 l106 -77 1795 1411 c986 777 1814 1427 1838 1446 65 49 -189 -203
-1775 -1765 -781 -769 -1421 -1401 -1422 -1404 -5 -11 1430 -1046 1490 -1075
55 -27 72 -30 147 -29 68 1 96 6 142 27 68 31 138 97 172 164 34 68 1556 4237
1556 4263 0 29 -26 76 -52 94 -12 9 -41 16 -63 15 -28 0 -752 -273 -2410 -909z"/>
<path d="M935 1508 c3 -13 50 -270 105 -573 56 -302 106 -568 113 -590 15 -54
101 -140 153 -154 58 -16 134 -13 179 8 78 35 675 435 675 451 0 8 -1214 880
-1224 880 -4 0 -4 -10 -1 -22z"/>
</g>
</svg>
