<?xml version="1.0" standalone="no"?>
<!DOCTYPE svg PUBLIC "-//W3C//DTD SVG 20010904//EN"
 "http://www.w3.org/TR/2001/REC-SVG-20010904/DTD/svg10.dtd">
<svg version="1.0" xmlns="http://www.w3.org/2000/svg"
 width="240.000000pt" height="210.000000pt" viewBox="0 0 240.000000 210.000000"
 preserveAspectRatio="xMidYMid meet">

<g transform="translate(0.000000,210.000000) scale(0.100000,-0.100000)"
fill="#000000" stroke="none">
<path d="M817 2076 c-49 -18 -113 -63 -136 -95 -54 -76 -56 -86 -61 -289 l-5
-192 75 0 75 0 0 168 c0 186 6 207 69 250 l32 22 640 0 c620 0 640 -1 672 -20
18 -11 41 -34 52 -52 19 -32 20 -52 20 -816 0 -867 3 -827 -64 -875 l-31 -22
-641 -3 -640 -2 -34 22 c-71 49 -75 60 -78 254 l-4 175 -70 -3 -70 -3 2 -184
c1 -162 3 -191 21 -230 26 -59 81 -116 144 -149 l50 -27 670 0 c660 0 671 0
716 21 66 31 114 78 146 142 l28 57 0 820 0 820 -28 57 c-15 32 -48 75 -72 96
-84 73 -68 72 -794 72 -517 -1 -654 -4 -684 -14z"/>
<path d="M1305 1615 c-50 -49 -43 -61 182 -287 l207 -208 -826 0 -827 0 -21
-27 c-26 -34 -21 -79 13 -105 20 -16 81 -18 842 -18 l820 0 -208 -208 c-217
-217 -226 -230 -192 -279 20 -28 59 -37 93 -19 15 8 146 134 290 279 247 247
264 266 265 301 1 36 -10 48 -279 317 -304 303 -308 306 -359 254z"/>
</g>
</svg>
